<?xml version="1.0" encoding="UTF-8" standalone="no"?>
<svg
   xmlns:dc="http://purl.org/dc/elements/1.1/"
   xmlns:cc="http://creativecommons.org/ns#"
   xmlns:rdf="http://www.w3.org/1999/02/22-rdf-syntax-ns#"
   xmlns:svg="http://www.w3.org/2000/svg"
   xmlns="http://www.w3.org/2000/svg"
   xmlns:xlink="http://www.w3.org/1999/xlink"
   xmlns:sodipodi="http://sodipodi.sourceforge.net/DTD/sodipodi-0.dtd"
   xmlns:inkscape="http://www.inkscape.org/namespaces/inkscape"
   inkscape:export-ydpi="192"
   inkscape:export-xdpi="192"
   inkscape:export-filename="/home/bngo/Desktop/csm/2020-09-21/change-of-basis.png"
   width="980.19684"
   height="582"
   viewBox="0 0 259.34373 153.9875"
   version="1.1"
   id="svg8"
   inkscape:version="1.0.2 (e86c870879, 2021-01-15)"
   sodipodi:docname="change-of-basis.svg">
  <defs
     id="defs2">
    <marker
       inkscape:stockid="Arrow1Lend"
       orient="auto"
       refY="0"
       refX="0"
       id="marker2909"
       style="overflow:visible"
       inkscape:isstock="true">
      <path
         id="path2907"
         d="M 0,0 5,-5 -12.5,0 5,5 Z"
         style="fill:#000000;fill-opacity:1;fill-rule:evenodd;stroke:#000000;stroke-width:1pt;stroke-opacity:1"
         transform="matrix(-0.8,0,0,-0.8,-10,0)" />
    </marker>
    <marker
       inkscape:isstock="true"
       style="overflow:visible"
       id="marker2899"
       refX="0"
       refY="0"
       orient="auto"
       inkscape:stockid="Arrow1Lend">
      <path
         transform="matrix(-0.8,0,0,-0.8,-10,0)"
         style="fill:#000000;fill-opacity:1;fill-rule:evenodd;stroke:#000000;stroke-width:1pt;stroke-opacity:1"
         d="M 0,0 5,-5 -12.5,0 5,5 Z"
         id="path2897" />
    </marker>
    <marker
       inkscape:stockid="Arrow1Lend"
       orient="auto"
       refY="0"
       refX="0"
       id="marker2575"
       style="overflow:visible"
       inkscape:isstock="true">
      <path
         id="path2573"
         d="M 0,0 5,-5 -12.5,0 5,5 Z"
         style="fill:#000000;fill-opacity:1;fill-rule:evenodd;stroke:#000000;stroke-width:1pt;stroke-opacity:1"
         transform="matrix(-0.8,0,0,-0.8,-10,0)" />
    </marker>
    <marker
       inkscape:isstock="true"
       style="overflow:visible"
       id="marker2565"
       refX="0"
       refY="0"
       orient="auto"
       inkscape:stockid="Arrow1Lend">
      <path
         transform="matrix(-0.8,0,0,-0.8,-10,0)"
         style="fill:#000000;fill-opacity:1;fill-rule:evenodd;stroke:#000000;stroke-width:1pt;stroke-opacity:1"
         d="M 0,0 5,-5 -12.5,0 5,5 Z"
         id="path2563" />
    </marker>
    <marker
       inkscape:collect="always"
       inkscape:stockid="Arrow1Lend"
       orient="auto"
       refY="0"
       refX="0"
       id="marker2136"
       style="overflow:visible"
       inkscape:isstock="true">
      <path
         id="path2134"
         d="M 0,0 5,-5 -12.5,0 5,5 Z"
         style="fill:#000000;fill-opacity:1;fill-rule:evenodd;stroke:#000000;stroke-width:1pt;stroke-opacity:1"
         transform="matrix(-0.8,0,0,-0.8,-10,0)" />
    </marker>
    <marker
       inkscape:collect="always"
       inkscape:isstock="true"
       style="overflow:visible"
       id="marker2076"
       refX="0"
       refY="0"
       orient="auto"
       inkscape:stockid="Arrow1Lend">
      <path
         transform="matrix(-0.8,0,0,-0.8,-10,0)"
         style="fill:#000000;fill-opacity:1;fill-rule:evenodd;stroke:#000000;stroke-width:1pt;stroke-opacity:1"
         d="M 0,0 5,-5 -12.5,0 5,5 Z"
         id="path2074" />
    </marker>
    <marker
       inkscape:collect="always"
       inkscape:stockid="Arrow1Lend"
       orient="auto"
       refY="0"
       refX="0"
       id="marker1877"
       style="overflow:visible"
       inkscape:isstock="true">
      <path
         id="path1875"
         d="M 0,0 5,-5 -12.5,0 5,5 Z"
         style="fill:#000000;fill-opacity:1;fill-rule:evenodd;stroke:#000000;stroke-width:1pt;stroke-opacity:1"
         transform="matrix(-0.8,0,0,-0.8,-10,0)" />
    </marker>
    <marker
       inkscape:collect="always"
       inkscape:isstock="true"
       style="overflow:visible"
       id="Arrow1Lend"
       refX="0"
       refY="0"
       orient="auto"
       inkscape:stockid="Arrow1Lend">
      <path
         transform="matrix(-0.8,0,0,-0.8,-10,0)"
         style="fill:#000000;fill-opacity:1;fill-rule:evenodd;stroke:#000000;stroke-width:1pt;stroke-opacity:1"
         d="M 0,0 5,-5 -12.5,0 5,5 Z"
         id="path1249" />
    </marker>
    <g
       id="g475">
      <symbol
         id="symbol666"
         overflow="visible">
        <path
           id="path5251"
           d=""
           style="stroke:none" />
      </symbol>
      <symbol
         id="symbol9239"
         overflow="visible">
        <path
           id="path519"
           d="m 5.34375,-4 c -0.359375,0.109375 -0.53125,0.4375 -0.53125,0.6875 0,0.21875 0.15625,0.46875 0.484375,0.46875 0.359375,0 0.71875,-0.296875 0.71875,-0.78125 C 6.015625,-4.15625 5.5,-4.5 4.890625,-4.5 4.3125,-4.5 3.953125,-4.078125 3.8125,-3.890625 3.5625,-4.3125 3.015625,-4.5 2.4375,-4.5 c -1.25,0 -1.921875,1.21875 -1.921875,1.546875 0,0.140625 0.140625,0.140625 0.234375,0.140625 0.125,0 0.1875,0 0.234375,-0.125 0.28125,-0.90625 1,-1.203125 1.40625,-1.203125 0.375,0 0.5625,0.171875 0.5625,0.484375 0,0.203125 -0.140625,0.75 -0.234375,1.109375 L 2.375,-1.1875 c -0.140625,0.609375 -0.5,0.90625 -0.84375,0.90625 -0.046875,0 -0.28125,0 -0.46875,-0.140625 0.359375,-0.109375 0.53125,-0.453125 0.53125,-0.6875 0,-0.21875 -0.171875,-0.46875 -0.5,-0.46875 -0.34375,0 -0.71875,0.296875 -0.71875,0.78125 0,0.53125 0.53125,0.875 1.140625,0.875 0.5625,0 0.9375,-0.421875 1.0625,-0.609375 0.25,0.421875 0.8125,0.609375 1.375,0.609375 1.265625,0 1.9375,-1.21875 1.9375,-1.546875 0,-0.140625 -0.15625,-0.140625 -0.234375,-0.140625 -0.125,0 -0.1875,0 -0.234375,0.125 -0.28125,0.90625 -1,1.203125 -1.421875,1.203125 -0.375,0 -0.546875,-0.171875 -0.546875,-0.5 0,-0.203125 0.125,-0.734375 0.21875,-1.109375 0.0625,-0.25 0.296875,-1.1875 0.34375,-1.34375 0.15625,-0.609375 0.5,-0.90625 0.84375,-0.90625 0.0625,0 0.28125,0 0.484375,0.140625 z m 0,0"
           style="stroke:none" />
      </symbol>
    </g>
    <g
       id="g4592">
      <symbol
         id="symbol8147"
         overflow="visible">
        <path
           id="path7502"
           d=""
           style="stroke:none" />
      </symbol>
      <symbol
         id="symbol2265"
         overflow="visible">
        <path
           id="path160"
           d="m 5.34375,-4 c -0.359375,0.109375 -0.53125,0.4375 -0.53125,0.6875 0,0.21875 0.15625,0.46875 0.484375,0.46875 0.359375,0 0.71875,-0.296875 0.71875,-0.78125 C 6.015625,-4.15625 5.5,-4.5 4.890625,-4.5 4.3125,-4.5 3.953125,-4.078125 3.8125,-3.890625 3.5625,-4.3125 3.015625,-4.5 2.4375,-4.5 c -1.25,0 -1.921875,1.21875 -1.921875,1.546875 0,0.140625 0.140625,0.140625 0.234375,0.140625 0.125,0 0.1875,0 0.234375,-0.125 0.28125,-0.90625 1,-1.203125 1.40625,-1.203125 0.375,0 0.5625,0.171875 0.5625,0.484375 0,0.203125 -0.140625,0.75 -0.234375,1.109375 L 2.375,-1.1875 c -0.140625,0.609375 -0.5,0.90625 -0.84375,0.90625 -0.046875,0 -0.28125,0 -0.46875,-0.140625 0.359375,-0.109375 0.53125,-0.453125 0.53125,-0.6875 0,-0.21875 -0.171875,-0.46875 -0.5,-0.46875 -0.34375,0 -0.71875,0.296875 -0.71875,0.78125 0,0.53125 0.53125,0.875 1.140625,0.875 0.5625,0 0.9375,-0.421875 1.0625,-0.609375 0.25,0.421875 0.8125,0.609375 1.375,0.609375 1.265625,0 1.9375,-1.21875 1.9375,-1.546875 0,-0.140625 -0.15625,-0.140625 -0.234375,-0.140625 -0.125,0 -0.1875,0 -0.234375,0.125 -0.28125,0.90625 -1,1.203125 -1.421875,1.203125 -0.375,0 -0.546875,-0.171875 -0.546875,-0.5 0,-0.203125 0.125,-0.734375 0.21875,-1.109375 0.0625,-0.25 0.296875,-1.1875 0.34375,-1.34375 0.15625,-0.609375 0.5,-0.90625 0.84375,-0.90625 0.0625,0 0.28125,0 0.484375,0.140625 z m 0,0"
           style="stroke:none" />
      </symbol>
    </g>
    <g
       id="g2100">
      <symbol
         id="symbol6040"
         overflow="visible">
        <path
           id="path2130"
           d=""
           style="stroke:none" />
      </symbol>
      <symbol
         id="symbol8327"
         overflow="visible">
        <path
           id="path3434"
           d="m 5.34375,-4 c -0.359375,0.109375 -0.53125,0.4375 -0.53125,0.6875 0,0.21875 0.15625,0.46875 0.484375,0.46875 0.359375,0 0.71875,-0.296875 0.71875,-0.78125 C 6.015625,-4.15625 5.5,-4.5 4.890625,-4.5 4.3125,-4.5 3.953125,-4.078125 3.8125,-3.890625 3.5625,-4.3125 3.015625,-4.5 2.4375,-4.5 c -1.25,0 -1.921875,1.21875 -1.921875,1.546875 0,0.140625 0.140625,0.140625 0.234375,0.140625 0.125,0 0.1875,0 0.234375,-0.125 0.28125,-0.90625 1,-1.203125 1.40625,-1.203125 0.375,0 0.5625,0.171875 0.5625,0.484375 0,0.203125 -0.140625,0.75 -0.234375,1.109375 L 2.375,-1.1875 c -0.140625,0.609375 -0.5,0.90625 -0.84375,0.90625 -0.046875,0 -0.28125,0 -0.46875,-0.140625 0.359375,-0.109375 0.53125,-0.453125 0.53125,-0.6875 0,-0.21875 -0.171875,-0.46875 -0.5,-0.46875 -0.34375,0 -0.71875,0.296875 -0.71875,0.78125 0,0.53125 0.53125,0.875 1.140625,0.875 0.5625,0 0.9375,-0.421875 1.0625,-0.609375 0.25,0.421875 0.8125,0.609375 1.375,0.609375 1.265625,0 1.9375,-1.21875 1.9375,-1.546875 0,-0.140625 -0.15625,-0.140625 -0.234375,-0.140625 -0.125,0 -0.1875,0 -0.234375,0.125 -0.28125,0.90625 -1,1.203125 -1.421875,1.203125 -0.375,0 -0.546875,-0.171875 -0.546875,-0.5 0,-0.203125 0.125,-0.734375 0.21875,-1.109375 0.0625,-0.25 0.296875,-1.1875 0.34375,-1.34375 0.15625,-0.609375 0.5,-0.90625 0.84375,-0.90625 0.0625,0 0.28125,0 0.484375,0.140625 z m 0,0"
           style="stroke:none" />
      </symbol>
    </g>
    <g
       id="g7431">
      <symbol
         id="symbol4575"
         overflow="visible">
        <path
           id="path9173"
           d=""
           style="stroke:none" />
      </symbol>
      <symbol
         id="symbol391"
         overflow="visible">
        <path
           id="path4766"
           d="m 2.40625,-3.40625 c 0.140625,0 0.265625,0 0.40625,0 0.390625,-0.015625 0.890625,-0.046875 1.28125,-0.0625 -0.28125,0.265625 -0.4375,0.421875 -1.4375,1.1875 -2.015625,1.53125 -2.234375,2.1875 -2.234375,2.21875 0,0.140625 0.140625,0.140625 0.21875,0.140625 0.171875,0 0.171875,-0.015625 0.25,-0.109375 0.359375,-0.5 0.71875,-0.5625 0.890625,-0.5625 0.265625,0 0.484375,0.171875 0.640625,0.28125 0.3125,0.21875 0.5625,0.390625 0.9375,0.390625 1.109375,0 1.84375,-1.21875 1.84375,-1.59375 0,-0.140625 -0.171875,-0.140625 -0.234375,-0.140625 -0.078125,0 -0.1875,0 -0.21875,0.09375 -0.078125,0.1875 -0.1875,0.4375 -0.859375,0.515625 -0.046875,0.015625 -2,0.09375 -2.21875,0.09375 0.28125,-0.265625 0.4375,-0.421875 1.453125,-1.1875 2.015625,-1.53125 2.234375,-2.1875 2.234375,-2.21875 C 5.359375,-4.5 5.21875,-4.5 5.140625,-4.5 c -0.15625,0 -0.171875,0 -0.234375,0.09375 -0.234375,0.34375 -0.4375,0.578125 -0.671875,0.578125 -0.25,0 -0.46875,-0.15625 -0.703125,-0.3125 C 3.296875,-4.328125 3.046875,-4.5 2.671875,-4.5 c -0.875,0 -1.453125,0.875 -1.453125,1.1875 0,0.140625 0.171875,0.140625 0.25,0.140625 0.09375,0 0.203125,0 0.21875,-0.125 C 1.828125,-3.375 1.90625,-3.375 2.203125,-3.40625 Z m 0,0"
           style="stroke:none" />
      </symbol>
    </g>
    <g
       id="g1262">
      <symbol
         id="symbol763"
         overflow="visible">
        <path
           id="path5749"
           d=""
           style="stroke:none" />
      </symbol>
      <symbol
         id="symbol2663"
         overflow="visible">
        <path
           id="path3865"
           d="m 5.75,-3.765625 c 0.046875,-0.171875 0.046875,-0.1875 0.046875,-0.21875 0,-0.21875 -0.15625,-0.4375 -0.46875,-0.4375 -0.515625,0 -0.640625,0.46875 -0.703125,0.734375 L 4.359375,-2.65625 C 4.25,-2.171875 4.0625,-1.40625 3.953125,-1 3.890625,-0.78125 3.59375,-0.53125 3.5625,-0.515625 3.453125,-0.453125 3.203125,-0.28125 2.875,-0.28125 c -0.578125,0 -0.59375,-0.5 -0.59375,-0.71875 0,-0.609375 0.3125,-1.390625 0.59375,-2.109375 C 2.96875,-3.375 3,-3.4375 3,-3.609375 3,-4.1875 2.421875,-4.5 1.875,-4.5 c -1.0625,0 -1.5625,1.34375 -1.5625,1.546875 0,0.140625 0.15625,0.140625 0.25,0.140625 0.109375,0 0.1875,0 0.21875,-0.125 0.328125,-1.109375 0.890625,-1.203125 1.03125,-1.203125 0.078125,0 0.171875,0 0.171875,0.203125 0,0.234375 -0.109375,0.484375 -0.171875,0.640625 -0.390625,1 -0.59375,1.578125 -0.59375,2.078125 0,1.140625 1,1.296875 1.578125,1.296875 0.25,0 0.59375,-0.03125 0.96875,-0.296875 C 3.484375,1 2.734375,1.65625 2.046875,1.65625 1.90625,1.65625 1.640625,1.640625 1.4375,1.515625 1.75,1.390625 1.90625,1.109375 1.90625,0.84375 1.90625,0.484375 1.625,0.390625 1.421875,0.390625 c -0.359375,0 -0.71875,0.3125 -0.71875,0.75 0,0.515625 0.53125,0.875 1.34375,0.875 1.140625,0 2.453125,-0.765625 2.765625,-2 z m 0,0"
           style="stroke:none" />
      </symbol>
    </g>
    <g
       id="g5330">
      <symbol
         id="symbol2431"
         overflow="visible">
        <path
           id="path1483"
           d=""
           style="stroke:none" />
      </symbol>
      <symbol
         id="symbol4975"
         overflow="visible">
        <path
           id="path6192"
           d="m 5.34375,-4 c -0.359375,0.109375 -0.53125,0.4375 -0.53125,0.6875 0,0.21875 0.15625,0.46875 0.484375,0.46875 0.359375,0 0.71875,-0.296875 0.71875,-0.78125 C 6.015625,-4.15625 5.5,-4.5 4.890625,-4.5 4.3125,-4.5 3.953125,-4.078125 3.8125,-3.890625 3.5625,-4.3125 3.015625,-4.5 2.4375,-4.5 c -1.25,0 -1.921875,1.21875 -1.921875,1.546875 0,0.140625 0.140625,0.140625 0.234375,0.140625 0.125,0 0.1875,0 0.234375,-0.125 0.28125,-0.90625 1,-1.203125 1.40625,-1.203125 0.375,0 0.5625,0.171875 0.5625,0.484375 0,0.203125 -0.140625,0.75 -0.234375,1.109375 L 2.375,-1.1875 c -0.140625,0.609375 -0.5,0.90625 -0.84375,0.90625 -0.046875,0 -0.28125,0 -0.46875,-0.140625 0.359375,-0.109375 0.53125,-0.453125 0.53125,-0.6875 0,-0.21875 -0.171875,-0.46875 -0.5,-0.46875 -0.34375,0 -0.71875,0.296875 -0.71875,0.78125 0,0.53125 0.53125,0.875 1.140625,0.875 0.5625,0 0.9375,-0.421875 1.0625,-0.609375 0.25,0.421875 0.8125,0.609375 1.375,0.609375 1.265625,0 1.9375,-1.21875 1.9375,-1.546875 0,-0.140625 -0.15625,-0.140625 -0.234375,-0.140625 -0.125,0 -0.1875,0 -0.234375,0.125 -0.28125,0.90625 -1,1.203125 -1.421875,1.203125 -0.375,0 -0.546875,-0.171875 -0.546875,-0.5 0,-0.203125 0.125,-0.734375 0.21875,-1.109375 0.0625,-0.25 0.296875,-1.1875 0.34375,-1.34375 0.15625,-0.609375 0.5,-0.90625 0.84375,-0.90625 0.0625,0 0.28125,0 0.484375,0.140625 z m 0,0"
           style="stroke:none" />
      </symbol>
      <symbol
         id="symbol419"
         overflow="visible">
        <path
           id="path8692"
           d=""
           style="stroke:none" />
      </symbol>
      <symbol
         id="symbol373"
         overflow="visible">
        <path
           id="path4523"
           d="m 2.25,-1.734375 c 0.578125,-0.25 0.828125,-0.34375 1,-0.4375 0.140625,-0.046875 0.203125,-0.078125 0.203125,-0.21875 0,-0.109375 -0.09375,-0.21875 -0.21875,-0.21875 -0.046875,0 -0.0625,0 -0.140625,0.0625 L 2.140625,-1.90625 2.25,-2.9375 c 0.015625,-0.125 0,-0.296875 -0.21875,-0.296875 -0.078125,0 -0.21875,0.046875 -0.21875,0.203125 0,0.0625 0.03125,0.265625 0.046875,0.34375 0.015625,0.109375 0.0625,0.625 0.078125,0.78125 L 0.984375,-2.546875 c -0.0625,-0.03125 -0.078125,-0.0625 -0.140625,-0.0625 -0.140625,0 -0.21875,0.109375 -0.21875,0.21875 0,0.140625 0.078125,0.1875 0.140625,0.203125 L 1.8125,-1.734375 c -0.5625,0.25 -0.828125,0.34375 -1,0.421875 -0.125,0.0625 -0.1875,0.09375 -0.1875,0.21875 0,0.125 0.078125,0.21875 0.21875,0.21875 0.046875,0 0.0625,0 0.140625,-0.0625 l 0.953125,-0.625 -0.125,1.109375 c 0,0.15625 0.140625,0.21875 0.21875,0.21875 0.09375,0 0.21875,-0.0625 0.21875,-0.21875 0,-0.0625 -0.03125,-0.265625 -0.03125,-0.328125 -0.015625,-0.125 -0.0625,-0.625 -0.078125,-0.78125 L 2.96875,-1.015625 C 3.15625,-0.875 3.171875,-0.875 3.234375,-0.875 c 0.125,0 0.21875,-0.09375 0.21875,-0.21875 0,-0.140625 -0.09375,-0.171875 -0.15625,-0.203125 z m 0,0"
           style="stroke:none" />
      </symbol>
    </g>
    <g
       id="g195">
      <symbol
         id="symbol2760"
         overflow="visible">
        <path
           id="path8734"
           d=""
           style="stroke:none" />
      </symbol>
      <symbol
         id="symbol7859"
         overflow="visible">
        <path
           id="path7479"
           d="m 5.75,-3.765625 c 0.046875,-0.171875 0.046875,-0.1875 0.046875,-0.21875 0,-0.21875 -0.15625,-0.4375 -0.46875,-0.4375 -0.515625,0 -0.640625,0.46875 -0.703125,0.734375 L 4.359375,-2.65625 C 4.25,-2.171875 4.0625,-1.40625 3.953125,-1 3.890625,-0.78125 3.59375,-0.53125 3.5625,-0.515625 3.453125,-0.453125 3.203125,-0.28125 2.875,-0.28125 c -0.578125,0 -0.59375,-0.5 -0.59375,-0.71875 0,-0.609375 0.3125,-1.390625 0.59375,-2.109375 C 2.96875,-3.375 3,-3.4375 3,-3.609375 3,-4.1875 2.421875,-4.5 1.875,-4.5 c -1.0625,0 -1.5625,1.34375 -1.5625,1.546875 0,0.140625 0.15625,0.140625 0.25,0.140625 0.109375,0 0.1875,0 0.21875,-0.125 0.328125,-1.109375 0.890625,-1.203125 1.03125,-1.203125 0.078125,0 0.171875,0 0.171875,0.203125 0,0.234375 -0.109375,0.484375 -0.171875,0.640625 -0.390625,1 -0.59375,1.578125 -0.59375,2.078125 0,1.140625 1,1.296875 1.578125,1.296875 0.25,0 0.59375,-0.03125 0.96875,-0.296875 C 3.484375,1 2.734375,1.65625 2.046875,1.65625 1.90625,1.65625 1.640625,1.640625 1.4375,1.515625 1.75,1.390625 1.90625,1.109375 1.90625,0.84375 1.90625,0.484375 1.625,0.390625 1.421875,0.390625 c -0.359375,0 -0.71875,0.3125 -0.71875,0.75 0,0.515625 0.53125,0.875 1.34375,0.875 1.140625,0 2.453125,-0.765625 2.765625,-2 z m 0,0"
           style="stroke:none" />
      </symbol>
      <symbol
         id="symbol3330"
         overflow="visible">
        <path
           id="path1910"
           d=""
           style="stroke:none" />
      </symbol>
      <symbol
         id="symbol8486"
         overflow="visible">
        <path
           id="path8314"
           d="m 2.25,-1.734375 c 0.578125,-0.25 0.828125,-0.34375 1,-0.4375 0.140625,-0.046875 0.203125,-0.078125 0.203125,-0.21875 0,-0.109375 -0.09375,-0.21875 -0.21875,-0.21875 -0.046875,0 -0.0625,0 -0.140625,0.0625 L 2.140625,-1.90625 2.25,-2.9375 c 0.015625,-0.125 0,-0.296875 -0.21875,-0.296875 -0.078125,0 -0.21875,0.046875 -0.21875,0.203125 0,0.0625 0.03125,0.265625 0.046875,0.34375 0.015625,0.109375 0.0625,0.625 0.078125,0.78125 L 0.984375,-2.546875 c -0.0625,-0.03125 -0.078125,-0.0625 -0.140625,-0.0625 -0.140625,0 -0.21875,0.109375 -0.21875,0.21875 0,0.140625 0.078125,0.1875 0.140625,0.203125 L 1.8125,-1.734375 c -0.5625,0.25 -0.828125,0.34375 -1,0.421875 -0.125,0.0625 -0.1875,0.09375 -0.1875,0.21875 0,0.125 0.078125,0.21875 0.21875,0.21875 0.046875,0 0.0625,0 0.140625,-0.0625 l 0.953125,-0.625 -0.125,1.109375 c 0,0.15625 0.140625,0.21875 0.21875,0.21875 0.09375,0 0.21875,-0.0625 0.21875,-0.21875 0,-0.0625 -0.03125,-0.265625 -0.03125,-0.328125 -0.015625,-0.125 -0.0625,-0.625 -0.078125,-0.78125 L 2.96875,-1.015625 C 3.15625,-0.875 3.171875,-0.875 3.234375,-0.875 c 0.125,0 0.21875,-0.09375 0.21875,-0.21875 0,-0.140625 -0.09375,-0.171875 -0.15625,-0.203125 z m 0,0"
           style="stroke:none" />
      </symbol>
    </g>
    <g
       id="g2688">
      <symbol
         id="symbol1163"
         overflow="visible">
        <path
           id="path9234"
           d=""
           style="stroke:none" />
      </symbol>
      <symbol
         id="symbol6526"
         overflow="visible">
        <path
           id="path5665"
           d="m 6.4375,-6.796875 c -0.046875,-0.25 -0.09375,-0.296875 -0.34375,-0.296875 -0.21875,0 -0.296875,0.046875 -0.4375,0.25 l -3.921875,6 c -0.125,0.1875 -0.234375,0.359375 -0.96875,0.375 -0.140625,0 -0.3125,0 -0.3125,0.296875 0,0.078125 0.0625,0.171875 0.1875,0.171875 0.296875,0 0.640625,-0.03125 0.9375,-0.03125 0.375,0 0.75,0.03125 1.109375,0.03125 0.078125,0 0.265625,0 0.265625,-0.296875 0,-0.171875 -0.171875,-0.171875 -0.25,-0.171875 -0.078125,0 -0.359375,0 -0.578125,-0.109375 L 3.046875,-1.96875 h 2.6875 l 0.234375,1.453125 c -0.203125,0.03125 -0.5,0.046875 -0.65625,0.046875 -0.203125,0 -0.375,0 -0.375,0.296875 C 4.9375,-0.046875 5.046875,0 5.15625,0 5.5,0 6.3125,-0.03125 6.65625,-0.03125 c 0.21875,0 0.453125,0.015625 0.6875,0.015625 C 7.5625,-0.015625 7.8125,0 8.03125,0 8.125,0 8.3125,0 8.3125,-0.296875 c 0,-0.171875 -0.140625,-0.171875 -0.390625,-0.171875 -0.140625,0 -0.25,0 -0.390625,-0.015625 -0.125,0 -0.140625,-0.015625 -0.171875,-0.1875 z m -1.21875,1.484375 0.4375,2.875 h -2.3125 z m 0,0"
           style="stroke:none" />
      </symbol>
    </g>
    <g
       id="g4979">
      <symbol
         id="symbol6819"
         overflow="visible">
        <path
           id="path6635"
           d=""
           style="stroke:none" />
      </symbol>
      <symbol
         id="symbol1131"
         overflow="visible">
        <path
           id="path3682"
           d="m 6.4375,-6.796875 c -0.046875,-0.25 -0.09375,-0.296875 -0.34375,-0.296875 -0.21875,0 -0.296875,0.046875 -0.4375,0.25 l -3.921875,6 c -0.125,0.1875 -0.234375,0.359375 -0.96875,0.375 -0.140625,0 -0.3125,0 -0.3125,0.296875 0,0.078125 0.0625,0.171875 0.1875,0.171875 0.296875,0 0.640625,-0.03125 0.9375,-0.03125 0.375,0 0.75,0.03125 1.109375,0.03125 0.078125,0 0.265625,0 0.265625,-0.296875 0,-0.171875 -0.171875,-0.171875 -0.25,-0.171875 -0.078125,0 -0.359375,0 -0.578125,-0.109375 L 3.046875,-1.96875 h 2.6875 l 0.234375,1.453125 c -0.203125,0.03125 -0.5,0.046875 -0.65625,0.046875 -0.203125,0 -0.375,0 -0.375,0.296875 C 4.9375,-0.046875 5.046875,0 5.15625,0 5.5,0 6.3125,-0.03125 6.65625,-0.03125 c 0.21875,0 0.453125,0.015625 0.6875,0.015625 C 7.5625,-0.015625 7.8125,0 8.03125,0 8.125,0 8.3125,0 8.3125,-0.296875 c 0,-0.171875 -0.140625,-0.171875 -0.390625,-0.171875 -0.140625,0 -0.25,0 -0.390625,-0.015625 -0.125,0 -0.140625,-0.015625 -0.171875,-0.1875 z m -1.21875,1.484375 0.4375,2.875 h -2.3125 z m 0,0"
           style="stroke:none" />
      </symbol>
      <symbol
         id="symbol7654"
         overflow="visible">
        <path
           id="path1553"
           d=""
           style="stroke:none" />
      </symbol>
      <symbol
         id="symbol9245"
         overflow="visible">
        <path
           id="path1155"
           d="m 5.1875,-1.578125 c 0.109375,0 0.28125,0 0.28125,-0.15625 0,-0.1875 -0.171875,-0.1875 -0.28125,-0.1875 H 1.03125 c -0.109375,0 -0.28125,0 -0.28125,0.171875 0,0.171875 0.15625,0.171875 0.28125,0.171875 z m 0,0"
           style="stroke:none" />
      </symbol>
      <symbol
         id="symbol5182"
         overflow="visible">
        <path
           id="path8297"
           d=""
           style="stroke:none" />
      </symbol>
      <symbol
         id="symbol4425"
         overflow="visible">
        <path
           id="path7603"
           d="m 2.328125,-4.4375 c 0,-0.1875 0,-0.1875 -0.203125,-0.1875 -0.453125,0.4375 -1.078125,0.4375 -1.359375,0.4375 v 0.25 c 0.15625,0 0.625,0 1,-0.1875 v 3.546875 c 0,0.234375 0,0.328125 -0.6875,0.328125 H 0.8125 V 0 c 0.125,0 0.984375,-0.03125 1.234375,-0.03125 0.21875,0 1.09375,0.03125 1.25,0.03125 V -0.25 H 3.03125 c -0.703125,0 -0.703125,-0.09375 -0.703125,-0.328125 z m 0,0"
           style="stroke:none" />
      </symbol>
    </g>
    <g
       id="g1058">
      <symbol
         id="symbol1701"
         overflow="visible">
        <path
           id="path3280"
           d=""
           style="stroke:none" />
      </symbol>
      <symbol
         id="symbol3676"
         overflow="visible">
        <path
           id="path1886"
           d="M 7.5625,-5.96875 C 7.71875,-6.1875 7.828125,-6.359375 8.515625,-6.375 c 0.125,0 0.3125,0 0.3125,-0.28125 0,-0.0625 -0.0625,-0.1875 -0.1875,-0.1875 -0.28125,0 -0.609375,0.03125 -0.90625,0.03125 -0.359375,0 -0.75,-0.03125 -1.09375,-0.03125 -0.078125,0 -0.265625,0 -0.265625,0.296875 0,0.171875 0.171875,0.171875 0.25,0.171875 0.046875,0 0.34375,0 0.5625,0.109375 l -3.296875,4.78125 -0.875,-4.671875 C 3.015625,-6.1875 3,-6.265625 3,-6.296875 3,-6.375 3.53125,-6.375 3.609375,-6.375 c 0.21875,0 0.375,0 0.375,-0.28125 0,-0.125 -0.09375,-0.1875 -0.21875,-0.1875 -0.25,0 -0.5,0.03125 -0.75,0.03125 -0.25,0 -0.5,0 -0.734375,0 -0.234375,0 -0.453125,0 -0.6875,0 -0.21875,0 -0.453125,-0.03125 -0.65625,-0.03125 -0.09375,0 -0.28125,0 -0.28125,0.296875 0,0.171875 0.15625,0.171875 0.375,0.171875 0.125,0 0.25,0 0.390625,0.015625 0.109375,0.015625 0.109375,0.015625 0.140625,0.1875 l 1.140625,6.0625 c 0.046875,0.28125 0.15625,0.28125 0.34375,0.28125 0.28125,0 0.328125,-0.078125 0.46875,-0.265625 z m 0,0"
           style="stroke:none" />
      </symbol>
    </g>
    <g
       id="g731">
      <symbol
         id="symbol7541"
         overflow="visible">
        <path
           id="path7338"
           d=""
           style="stroke:none" />
      </symbol>
      <symbol
         id="symbol3093"
         overflow="visible">
        <path
           id="path9126"
           d="M 7.5625,-5.96875 C 7.71875,-6.1875 7.828125,-6.359375 8.515625,-6.375 c 0.125,0 0.3125,0 0.3125,-0.28125 0,-0.0625 -0.0625,-0.1875 -0.1875,-0.1875 -0.28125,0 -0.609375,0.03125 -0.90625,0.03125 -0.359375,0 -0.75,-0.03125 -1.09375,-0.03125 -0.078125,0 -0.265625,0 -0.265625,0.296875 0,0.171875 0.171875,0.171875 0.25,0.171875 0.046875,0 0.34375,0 0.5625,0.109375 l -3.296875,4.78125 -0.875,-4.671875 C 3.015625,-6.1875 3,-6.265625 3,-6.296875 3,-6.375 3.53125,-6.375 3.609375,-6.375 c 0.21875,0 0.375,0 0.375,-0.28125 0,-0.125 -0.09375,-0.1875 -0.21875,-0.1875 -0.25,0 -0.5,0.03125 -0.75,0.03125 -0.25,0 -0.5,0 -0.734375,0 -0.234375,0 -0.453125,0 -0.6875,0 -0.21875,0 -0.453125,-0.03125 -0.65625,-0.03125 -0.09375,0 -0.28125,0 -0.28125,0.296875 0,0.171875 0.15625,0.171875 0.375,0.171875 0.125,0 0.25,0 0.390625,0.015625 0.109375,0.015625 0.109375,0.015625 0.140625,0.1875 l 1.140625,6.0625 c 0.046875,0.28125 0.15625,0.28125 0.34375,0.28125 0.28125,0 0.328125,-0.078125 0.46875,-0.265625 z m 0,0"
           style="stroke:none" />
      </symbol>
      <symbol
         id="symbol1676"
         overflow="visible">
        <path
           id="path7705"
           d=""
           style="stroke:none" />
      </symbol>
      <symbol
         id="symbol8850"
         overflow="visible">
        <path
           id="path7944"
           d="m 5.1875,-1.578125 c 0.109375,0 0.28125,0 0.28125,-0.15625 0,-0.1875 -0.171875,-0.1875 -0.28125,-0.1875 H 1.03125 c -0.109375,0 -0.28125,0 -0.28125,0.171875 0,0.171875 0.15625,0.171875 0.28125,0.171875 z m 0,0"
           style="stroke:none" />
      </symbol>
      <symbol
         id="symbol3724"
         overflow="visible">
        <path
           id="path803"
           d=""
           style="stroke:none" />
      </symbol>
      <symbol
         id="symbol4450"
         overflow="visible">
        <path
           id="path7756"
           d="m 2.328125,-4.4375 c 0,-0.1875 0,-0.1875 -0.203125,-0.1875 -0.453125,0.4375 -1.078125,0.4375 -1.359375,0.4375 v 0.25 c 0.15625,0 0.625,0 1,-0.1875 v 3.546875 c 0,0.234375 0,0.328125 -0.6875,0.328125 H 0.8125 V 0 c 0.125,0 0.984375,-0.03125 1.234375,-0.03125 0.21875,0 1.09375,0.03125 1.25,0.03125 V -0.25 H 3.03125 c -0.703125,0 -0.703125,-0.09375 -0.703125,-0.328125 z m 0,0"
           style="stroke:none" />
      </symbol>
    </g>
    <g
       id="g1860">
      <symbol
         id="symbol7096"
         overflow="visible">
        <path
           id="path8482"
           d=""
           style="stroke:none" />
      </symbol>
      <symbol
         id="symbol2974"
         overflow="visible">
        <path
           id="path5298"
           d="M 7.5625,-5.96875 C 7.71875,-6.1875 7.828125,-6.359375 8.515625,-6.375 c 0.125,0 0.3125,0 0.3125,-0.28125 0,-0.0625 -0.0625,-0.1875 -0.1875,-0.1875 -0.28125,0 -0.609375,0.03125 -0.90625,0.03125 -0.359375,0 -0.75,-0.03125 -1.09375,-0.03125 -0.078125,0 -0.265625,0 -0.265625,0.296875 0,0.171875 0.171875,0.171875 0.25,0.171875 0.046875,0 0.34375,0 0.5625,0.109375 l -3.296875,4.78125 -0.875,-4.671875 C 3.015625,-6.1875 3,-6.265625 3,-6.296875 3,-6.375 3.53125,-6.375 3.609375,-6.375 c 0.21875,0 0.375,0 0.375,-0.28125 0,-0.125 -0.09375,-0.1875 -0.21875,-0.1875 -0.25,0 -0.5,0.03125 -0.75,0.03125 -0.25,0 -0.5,0 -0.734375,0 -0.234375,0 -0.453125,0 -0.6875,0 -0.21875,0 -0.453125,-0.03125 -0.65625,-0.03125 -0.09375,0 -0.28125,0 -0.28125,0.296875 0,0.171875 0.15625,0.171875 0.375,0.171875 0.125,0 0.25,0 0.390625,0.015625 0.109375,0.015625 0.109375,0.015625 0.140625,0.1875 l 1.140625,6.0625 c 0.046875,0.28125 0.15625,0.28125 0.34375,0.28125 0.28125,0 0.328125,-0.078125 0.46875,-0.265625 z m 0,0"
           style="stroke:none" />
      </symbol>
      <symbol
         id="symbol7480"
         overflow="visible">
        <path
           id="path3541"
           d="m 6.4375,-6.796875 c -0.046875,-0.25 -0.09375,-0.296875 -0.34375,-0.296875 -0.21875,0 -0.296875,0.046875 -0.4375,0.25 l -3.921875,6 c -0.125,0.1875 -0.234375,0.359375 -0.96875,0.375 -0.140625,0 -0.3125,0 -0.3125,0.296875 0,0.078125 0.0625,0.171875 0.1875,0.171875 0.296875,0 0.640625,-0.03125 0.9375,-0.03125 0.375,0 0.75,0.03125 1.109375,0.03125 0.078125,0 0.265625,0 0.265625,-0.296875 0,-0.171875 -0.171875,-0.171875 -0.25,-0.171875 -0.078125,0 -0.359375,0 -0.578125,-0.109375 L 3.046875,-1.96875 h 2.6875 l 0.234375,1.453125 c -0.203125,0.03125 -0.5,0.046875 -0.65625,0.046875 -0.203125,0 -0.375,0 -0.375,0.296875 C 4.9375,-0.046875 5.046875,0 5.15625,0 5.5,0 6.3125,-0.03125 6.65625,-0.03125 c 0.21875,0 0.453125,0.015625 0.6875,0.015625 C 7.5625,-0.015625 7.8125,0 8.03125,0 8.125,0 8.3125,0 8.3125,-0.296875 c 0,-0.171875 -0.140625,-0.171875 -0.390625,-0.171875 -0.140625,0 -0.25,0 -0.390625,-0.015625 -0.125,0 -0.140625,-0.015625 -0.171875,-0.1875 z m -1.21875,1.484375 0.4375,2.875 h -2.3125 z m 0,0"
           style="stroke:none" />
      </symbol>
      <symbol
         id="symbol1867"
         overflow="visible">
        <path
           id="path5788"
           d=""
           style="stroke:none" />
      </symbol>
      <symbol
         id="symbol8540"
         overflow="visible">
        <path
           id="path9643"
           d="m 5.1875,-1.578125 c 0.109375,0 0.28125,0 0.28125,-0.15625 0,-0.1875 -0.171875,-0.1875 -0.28125,-0.1875 H 1.03125 c -0.109375,0 -0.28125,0 -0.28125,0.171875 0,0.171875 0.15625,0.171875 0.28125,0.171875 z m 0,0"
           style="stroke:none" />
      </symbol>
      <symbol
         id="symbol167"
         overflow="visible">
        <path
           id="path3337"
           d=""
           style="stroke:none" />
      </symbol>
      <symbol
         id="symbol3566"
         overflow="visible">
        <path
           id="path899"
           d="m 2.328125,-4.4375 c 0,-0.1875 0,-0.1875 -0.203125,-0.1875 -0.453125,0.4375 -1.078125,0.4375 -1.359375,0.4375 v 0.25 c 0.15625,0 0.625,0 1,-0.1875 v 3.546875 c 0,0.234375 0,0.328125 -0.6875,0.328125 H 0.8125 V 0 c 0.125,0 0.984375,-0.03125 1.234375,-0.03125 0.21875,0 1.09375,0.03125 1.25,0.03125 V -0.25 H 3.03125 c -0.703125,0 -0.703125,-0.09375 -0.703125,-0.328125 z m 0,0"
           style="stroke:none" />
      </symbol>
    </g>
    <g
       id="g1987">
      <symbol
         id="symbol145"
         overflow="visible">
        <path
           id="path8563"
           d=""
           style="stroke:none" />
      </symbol>
      <symbol
         id="symbol7997"
         overflow="visible">
        <path
           id="path6385"
           d="M 7.5625,-5.96875 C 7.71875,-6.1875 7.828125,-6.359375 8.515625,-6.375 c 0.125,0 0.3125,0 0.3125,-0.28125 0,-0.0625 -0.0625,-0.1875 -0.1875,-0.1875 -0.28125,0 -0.609375,0.03125 -0.90625,0.03125 -0.359375,0 -0.75,-0.03125 -1.09375,-0.03125 -0.078125,0 -0.265625,0 -0.265625,0.296875 0,0.171875 0.171875,0.171875 0.25,0.171875 0.046875,0 0.34375,0 0.5625,0.109375 l -3.296875,4.78125 -0.875,-4.671875 C 3.015625,-6.1875 3,-6.265625 3,-6.296875 3,-6.375 3.53125,-6.375 3.609375,-6.375 c 0.21875,0 0.375,0 0.375,-0.28125 0,-0.125 -0.09375,-0.1875 -0.21875,-0.1875 -0.25,0 -0.5,0.03125 -0.75,0.03125 -0.25,0 -0.5,0 -0.734375,0 -0.234375,0 -0.453125,0 -0.6875,0 -0.21875,0 -0.453125,-0.03125 -0.65625,-0.03125 -0.09375,0 -0.28125,0 -0.28125,0.296875 0,0.171875 0.15625,0.171875 0.375,0.171875 0.125,0 0.25,0 0.390625,0.015625 0.109375,0.015625 0.109375,0.015625 0.140625,0.1875 l 1.140625,6.0625 c 0.046875,0.28125 0.15625,0.28125 0.34375,0.28125 0.28125,0 0.328125,-0.078125 0.46875,-0.265625 z m 0,0"
           style="stroke:none" />
      </symbol>
      <symbol
         id="symbol4694"
         overflow="visible">
        <path
           id="path5449"
           d="m 6.4375,-6.796875 c -0.046875,-0.25 -0.09375,-0.296875 -0.34375,-0.296875 -0.21875,0 -0.296875,0.046875 -0.4375,0.25 l -3.921875,6 c -0.125,0.1875 -0.234375,0.359375 -0.96875,0.375 -0.140625,0 -0.3125,0 -0.3125,0.296875 0,0.078125 0.0625,0.171875 0.1875,0.171875 0.296875,0 0.640625,-0.03125 0.9375,-0.03125 0.375,0 0.75,0.03125 1.109375,0.03125 0.078125,0 0.265625,0 0.265625,-0.296875 0,-0.171875 -0.171875,-0.171875 -0.25,-0.171875 -0.078125,0 -0.359375,0 -0.578125,-0.109375 L 3.046875,-1.96875 h 2.6875 l 0.234375,1.453125 c -0.203125,0.03125 -0.5,0.046875 -0.65625,0.046875 -0.203125,0 -0.375,0 -0.375,0.296875 C 4.9375,-0.046875 5.046875,0 5.15625,0 5.5,0 6.3125,-0.03125 6.65625,-0.03125 c 0.21875,0 0.453125,0.015625 0.6875,0.015625 C 7.5625,-0.015625 7.8125,0 8.03125,0 8.125,0 8.3125,0 8.3125,-0.296875 c 0,-0.171875 -0.140625,-0.171875 -0.390625,-0.171875 -0.140625,0 -0.25,0 -0.390625,-0.015625 -0.125,0 -0.140625,-0.015625 -0.171875,-0.1875 z m -1.21875,1.484375 0.4375,2.875 h -2.3125 z m 0,0"
           style="stroke:none" />
      </symbol>
      <symbol
         id="symbol6580"
         overflow="visible">
        <path
           id="path7790"
           d=""
           style="stroke:none" />
      </symbol>
      <symbol
         id="symbol4146"
         overflow="visible">
        <path
           id="path3317"
           d="m 5.1875,-1.578125 c 0.109375,0 0.28125,0 0.28125,-0.15625 0,-0.1875 -0.171875,-0.1875 -0.28125,-0.1875 H 1.03125 c -0.109375,0 -0.28125,0 -0.28125,0.171875 0,0.171875 0.15625,0.171875 0.28125,0.171875 z m 0,0"
           style="stroke:none" />
      </symbol>
      <symbol
         id="symbol8922"
         overflow="visible">
        <path
           id="path3"
           d=""
           style="stroke:none" />
      </symbol>
      <symbol
         id="symbol7600"
         overflow="visible">
        <path
           id="path2960"
           d="m 2.328125,-4.4375 c 0,-0.1875 0,-0.1875 -0.203125,-0.1875 -0.453125,0.4375 -1.078125,0.4375 -1.359375,0.4375 v 0.25 c 0.15625,0 0.625,0 1,-0.1875 v 3.546875 c 0,0.234375 0,0.328125 -0.6875,0.328125 H 0.8125 V 0 c 0.125,0 0.984375,-0.03125 1.234375,-0.03125 0.21875,0 1.09375,0.03125 1.25,0.03125 V -0.25 H 3.03125 c -0.703125,0 -0.703125,-0.09375 -0.703125,-0.328125 z m 0,0"
           style="stroke:none" />
      </symbol>
    </g>
    <g
       id="g299">
      <symbol
         id="symbol3419"
         overflow="visible">
        <path
           id="path2939"
           d=""
           style="stroke:none" />
      </symbol>
      <symbol
         id="symbol1529"
         overflow="visible">
        <path
           id="path2486"
           d="M 7.5625,-5.96875 C 7.71875,-6.1875 7.828125,-6.359375 8.515625,-6.375 c 0.125,0 0.3125,0 0.3125,-0.28125 0,-0.0625 -0.0625,-0.1875 -0.1875,-0.1875 -0.28125,0 -0.609375,0.03125 -0.90625,0.03125 -0.359375,0 -0.75,-0.03125 -1.09375,-0.03125 -0.078125,0 -0.265625,0 -0.265625,0.296875 0,0.171875 0.171875,0.171875 0.25,0.171875 0.046875,0 0.34375,0 0.5625,0.109375 l -3.296875,4.78125 -0.875,-4.671875 C 3.015625,-6.1875 3,-6.265625 3,-6.296875 3,-6.375 3.53125,-6.375 3.609375,-6.375 c 0.21875,0 0.375,0 0.375,-0.28125 0,-0.125 -0.09375,-0.1875 -0.21875,-0.1875 -0.25,0 -0.5,0.03125 -0.75,0.03125 -0.25,0 -0.5,0 -0.734375,0 -0.234375,0 -0.453125,0 -0.6875,0 -0.21875,0 -0.453125,-0.03125 -0.65625,-0.03125 -0.09375,0 -0.28125,0 -0.28125,0.296875 0,0.171875 0.15625,0.171875 0.375,0.171875 0.125,0 0.25,0 0.390625,0.015625 0.109375,0.015625 0.109375,0.015625 0.140625,0.1875 l 1.140625,6.0625 c 0.046875,0.28125 0.15625,0.28125 0.34375,0.28125 0.28125,0 0.328125,-0.078125 0.46875,-0.265625 z m 0,0"
           style="stroke:none" />
      </symbol>
      <symbol
         id="symbol6405"
         overflow="visible">
        <path
           id="path6927"
           d="m 6.4375,-6.796875 c -0.046875,-0.25 -0.09375,-0.296875 -0.34375,-0.296875 -0.21875,0 -0.296875,0.046875 -0.4375,0.25 l -3.921875,6 c -0.125,0.1875 -0.234375,0.359375 -0.96875,0.375 -0.140625,0 -0.3125,0 -0.3125,0.296875 0,0.078125 0.0625,0.171875 0.1875,0.171875 0.296875,0 0.640625,-0.03125 0.9375,-0.03125 0.375,0 0.75,0.03125 1.109375,0.03125 0.078125,0 0.265625,0 0.265625,-0.296875 0,-0.171875 -0.171875,-0.171875 -0.25,-0.171875 -0.078125,0 -0.359375,0 -0.578125,-0.109375 L 3.046875,-1.96875 h 2.6875 l 0.234375,1.453125 c -0.203125,0.03125 -0.5,0.046875 -0.65625,0.046875 -0.203125,0 -0.375,0 -0.375,0.296875 C 4.9375,-0.046875 5.046875,0 5.15625,0 5.5,0 6.3125,-0.03125 6.65625,-0.03125 c 0.21875,0 0.453125,0.015625 0.6875,0.015625 C 7.5625,-0.015625 7.8125,0 8.03125,0 8.125,0 8.3125,0 8.3125,-0.296875 c 0,-0.171875 -0.140625,-0.171875 -0.390625,-0.171875 -0.140625,0 -0.25,0 -0.390625,-0.015625 -0.125,0 -0.140625,-0.015625 -0.171875,-0.1875 z m -1.21875,1.484375 0.4375,2.875 h -2.3125 z m 0,0"
           style="stroke:none" />
      </symbol>
      <symbol
         id="symbol3715"
         overflow="visible">
        <path
           id="path701"
           d=""
           style="stroke:none" />
      </symbol>
      <symbol
         id="symbol7471"
         overflow="visible">
        <path
           id="path3387"
           d="m 5.1875,-1.578125 c 0.109375,0 0.28125,0 0.28125,-0.15625 0,-0.1875 -0.171875,-0.1875 -0.28125,-0.1875 H 1.03125 c -0.109375,0 -0.28125,0 -0.28125,0.171875 0,0.171875 0.15625,0.171875 0.28125,0.171875 z m 0,0"
           style="stroke:none" />
      </symbol>
      <symbol
         id="symbol8418"
         overflow="visible">
        <path
           id="path4241"
           d=""
           style="stroke:none" />
      </symbol>
      <symbol
         id="symbol1467"
         overflow="visible">
        <path
           id="path5609"
           d="m 2.328125,-4.4375 c 0,-0.1875 0,-0.1875 -0.203125,-0.1875 -0.453125,0.4375 -1.078125,0.4375 -1.359375,0.4375 v 0.25 c 0.15625,0 0.625,0 1,-0.1875 v 3.546875 c 0,0.234375 0,0.328125 -0.6875,0.328125 H 0.8125 V 0 c 0.125,0 0.984375,-0.03125 1.234375,-0.03125 0.21875,0 1.09375,0.03125 1.25,0.03125 V -0.25 H 3.03125 c -0.703125,0 -0.703125,-0.09375 -0.703125,-0.328125 z m 0,0"
           style="stroke:none" />
      </symbol>
    </g>
    <g
       id="g2168">
      <symbol
         id="symbol3898"
         overflow="visible">
        <path
           id="path4373"
           d=""
           style="stroke:none" />
      </symbol>
      <symbol
         id="symbol4045"
         overflow="visible">
        <path
           id="path3790"
           d="M 7.5625,-5.96875 C 7.71875,-6.1875 7.828125,-6.359375 8.515625,-6.375 c 0.125,0 0.3125,0 0.3125,-0.28125 0,-0.0625 -0.0625,-0.1875 -0.1875,-0.1875 -0.28125,0 -0.609375,0.03125 -0.90625,0.03125 -0.359375,0 -0.75,-0.03125 -1.09375,-0.03125 -0.078125,0 -0.265625,0 -0.265625,0.296875 0,0.171875 0.171875,0.171875 0.25,0.171875 0.046875,0 0.34375,0 0.5625,0.109375 l -3.296875,4.78125 -0.875,-4.671875 C 3.015625,-6.1875 3,-6.265625 3,-6.296875 3,-6.375 3.53125,-6.375 3.609375,-6.375 c 0.21875,0 0.375,0 0.375,-0.28125 0,-0.125 -0.09375,-0.1875 -0.21875,-0.1875 -0.25,0 -0.5,0.03125 -0.75,0.03125 -0.25,0 -0.5,0 -0.734375,0 -0.234375,0 -0.453125,0 -0.6875,0 -0.21875,0 -0.453125,-0.03125 -0.65625,-0.03125 -0.09375,0 -0.28125,0 -0.28125,0.296875 0,0.171875 0.15625,0.171875 0.375,0.171875 0.125,0 0.25,0 0.390625,0.015625 0.109375,0.015625 0.109375,0.015625 0.140625,0.1875 l 1.140625,6.0625 c 0.046875,0.28125 0.15625,0.28125 0.34375,0.28125 0.28125,0 0.328125,-0.078125 0.46875,-0.265625 z m 0,0"
           style="stroke:none" />
      </symbol>
      <symbol
         id="symbol7116"
         overflow="visible">
        <path
           id="path912"
           d="m 6.4375,-6.796875 c -0.046875,-0.25 -0.09375,-0.296875 -0.34375,-0.296875 -0.21875,0 -0.296875,0.046875 -0.4375,0.25 l -3.921875,6 c -0.125,0.1875 -0.234375,0.359375 -0.96875,0.375 -0.140625,0 -0.3125,0 -0.3125,0.296875 0,0.078125 0.0625,0.171875 0.1875,0.171875 0.296875,0 0.640625,-0.03125 0.9375,-0.03125 0.375,0 0.75,0.03125 1.109375,0.03125 0.078125,0 0.265625,0 0.265625,-0.296875 0,-0.171875 -0.171875,-0.171875 -0.25,-0.171875 -0.078125,0 -0.359375,0 -0.578125,-0.109375 L 3.046875,-1.96875 h 2.6875 l 0.234375,1.453125 c -0.203125,0.03125 -0.5,0.046875 -0.65625,0.046875 -0.203125,0 -0.375,0 -0.375,0.296875 C 4.9375,-0.046875 5.046875,0 5.15625,0 5.5,0 6.3125,-0.03125 6.65625,-0.03125 c 0.21875,0 0.453125,0.015625 0.6875,0.015625 C 7.5625,-0.015625 7.8125,0 8.03125,0 8.125,0 8.3125,0 8.3125,-0.296875 c 0,-0.171875 -0.140625,-0.171875 -0.390625,-0.171875 -0.140625,0 -0.25,0 -0.390625,-0.015625 -0.125,0 -0.140625,-0.015625 -0.171875,-0.1875 z m -1.21875,1.484375 0.4375,2.875 h -2.3125 z m 0,0"
           style="stroke:none" />
      </symbol>
      <symbol
         id="symbol380"
         overflow="visible">
        <path
           id="path8034"
           d=""
           style="stroke:none" />
      </symbol>
      <symbol
         id="symbol1015"
         overflow="visible">
        <path
           id="path5847"
           d="m 5.1875,-1.578125 c 0.109375,0 0.28125,0 0.28125,-0.15625 0,-0.1875 -0.171875,-0.1875 -0.28125,-0.1875 H 1.03125 c -0.109375,0 -0.28125,0 -0.28125,0.171875 0,0.171875 0.15625,0.171875 0.28125,0.171875 z m 0,0"
           style="stroke:none" />
      </symbol>
      <symbol
         id="symbol5546"
         overflow="visible">
        <path
           id="path8666"
           d=""
           style="stroke:none" />
      </symbol>
      <symbol
         id="symbol4106"
         overflow="visible">
        <path
           id="path8046"
           d="m 2.328125,-4.4375 c 0,-0.1875 0,-0.1875 -0.203125,-0.1875 -0.453125,0.4375 -1.078125,0.4375 -1.359375,0.4375 v 0.25 c 0.15625,0 0.625,0 1,-0.1875 v 3.546875 c 0,0.234375 0,0.328125 -0.6875,0.328125 H 0.8125 V 0 c 0.125,0 0.984375,-0.03125 1.234375,-0.03125 0.21875,0 1.09375,0.03125 1.25,0.03125 V -0.25 H 3.03125 c -0.703125,0 -0.703125,-0.09375 -0.703125,-0.328125 z m 0,0"
           style="stroke:none" />
      </symbol>
    </g>
    <g
       id="g407">
      <symbol
         overflow="visible"
         id="symbol3576">
        <path
           style="stroke:none;"
           d=""
           id="path4573" />
      </symbol>
      <symbol
         overflow="visible"
         id="symbol3855">
        <path
           style="stroke:none;"
           d="M 4.140625 -6.515625 L 3.984375 -6.65625 C 3.984375 -6.65625 3.609375 -6.1875 3.171875 -6.1875 C 2.9375 -6.1875 2.6875 -6.328125 2.515625 -6.4375 C 2.25 -6.59375 2.078125 -6.65625 1.90625 -6.65625 C 1.53125 -6.65625 1.328125 -6.4375 0.828125 -5.875 L 0.984375 -5.734375 C 0.984375 -5.734375 1.359375 -6.203125 1.796875 -6.203125 C 2.03125 -6.203125 2.28125 -6.0625 2.453125 -5.96875 C 2.71875 -5.796875 2.90625 -5.734375 3.078125 -5.734375 C 3.453125 -5.734375 3.640625 -5.953125 4.140625 -6.515625 Z M 4.140625 -6.515625 "
           id="path3939" />
      </symbol>
      <symbol
         overflow="visible"
         id="symbol4778">
        <path
           style="stroke:none;"
           d=""
           id="path1823" />
      </symbol>
      <symbol
         overflow="visible"
         id="symbol5567">
        <path
           style="stroke:none;"
           d="M 5.34375 -4 C 4.984375 -3.890625 4.8125 -3.5625 4.8125 -3.3125 C 4.8125 -3.09375 4.96875 -2.84375 5.296875 -2.84375 C 5.65625 -2.84375 6.015625 -3.140625 6.015625 -3.625 C 6.015625 -4.15625 5.5 -4.5 4.890625 -4.5 C 4.3125 -4.5 3.953125 -4.078125 3.8125 -3.890625 C 3.5625 -4.3125 3.015625 -4.5 2.4375 -4.5 C 1.1875 -4.5 0.515625 -3.28125 0.515625 -2.953125 C 0.515625 -2.8125 0.65625 -2.8125 0.75 -2.8125 C 0.875 -2.8125 0.9375 -2.8125 0.984375 -2.9375 C 1.265625 -3.84375 1.984375 -4.140625 2.390625 -4.140625 C 2.765625 -4.140625 2.953125 -3.96875 2.953125 -3.65625 C 2.953125 -3.453125 2.8125 -2.90625 2.71875 -2.546875 L 2.375 -1.1875 C 2.234375 -0.578125 1.875 -0.28125 1.53125 -0.28125 C 1.484375 -0.28125 1.25 -0.28125 1.0625 -0.421875 C 1.421875 -0.53125 1.59375 -0.875 1.59375 -1.109375 C 1.59375 -1.328125 1.421875 -1.578125 1.09375 -1.578125 C 0.75 -1.578125 0.375 -1.28125 0.375 -0.796875 C 0.375 -0.265625 0.90625 0.078125 1.515625 0.078125 C 2.078125 0.078125 2.453125 -0.34375 2.578125 -0.53125 C 2.828125 -0.109375 3.390625 0.078125 3.953125 0.078125 C 5.21875 0.078125 5.890625 -1.140625 5.890625 -1.46875 C 5.890625 -1.609375 5.734375 -1.609375 5.65625 -1.609375 C 5.53125 -1.609375 5.46875 -1.609375 5.421875 -1.484375 C 5.140625 -0.578125 4.421875 -0.28125 4 -0.28125 C 3.625 -0.28125 3.453125 -0.453125 3.453125 -0.78125 C 3.453125 -0.984375 3.578125 -1.515625 3.671875 -1.890625 C 3.734375 -2.140625 3.96875 -3.078125 4.015625 -3.234375 C 4.171875 -3.84375 4.515625 -4.140625 4.859375 -4.140625 C 4.921875 -4.140625 5.140625 -4.140625 5.34375 -4 Z M 5.34375 -4 "
           id="path8882" />
      </symbol>
    </g>
    <g
       id="g2516">
      <symbol
         overflow="visible"
         id="symbol8426">
        <path
           style="stroke:none;"
           d=""
           id="path3339" />
      </symbol>
      <symbol
         overflow="visible"
         id="symbol9034">
        <path
           style="stroke:none;"
           d="M 5.390625 -7.203125 C 4.90625 -6.78125 4.375 -6.484375 3.875 -6.484375 C 3.46875 -6.484375 3.1875 -6.65625 2.828125 -6.859375 C 2.546875 -7.03125 2.234375 -7.203125 1.828125 -7.203125 C 1.578125 -7.203125 1.328125 -7.125 1.109375 -7.015625 C 0.90625 -6.921875 0.703125 -6.8125 0.53125 -6.671875 L 0 -6.234375 L 0.140625 -6.0625 C 0.625 -6.46875 1.15625 -6.765625 1.671875 -6.765625 C 2.0625 -6.765625 2.359375 -6.59375 2.703125 -6.40625 C 2.984375 -6.234375 3.296875 -6.0625 3.703125 -6.0625 C 3.953125 -6.0625 4.203125 -6.140625 4.421875 -6.234375 C 4.625 -6.34375 4.828125 -6.453125 5 -6.59375 L 5.53125 -7.03125 Z M 5.390625 -7.203125 "
           id="path4621" />
      </symbol>
      <symbol
         overflow="visible"
         id="symbol1678">
        <path
           style="stroke:none;"
           d=""
           id="path3000" />
      </symbol>
      <symbol
         overflow="visible"
         id="symbol1966">
        <path
           style="stroke:none;"
           d="M 5.34375 -4 C 4.984375 -3.890625 4.8125 -3.5625 4.8125 -3.3125 C 4.8125 -3.09375 4.96875 -2.84375 5.296875 -2.84375 C 5.65625 -2.84375 6.015625 -3.140625 6.015625 -3.625 C 6.015625 -4.15625 5.5 -4.5 4.890625 -4.5 C 4.3125 -4.5 3.953125 -4.078125 3.8125 -3.890625 C 3.5625 -4.3125 3.015625 -4.5 2.4375 -4.5 C 1.1875 -4.5 0.515625 -3.28125 0.515625 -2.953125 C 0.515625 -2.8125 0.65625 -2.8125 0.75 -2.8125 C 0.875 -2.8125 0.9375 -2.8125 0.984375 -2.9375 C 1.265625 -3.84375 1.984375 -4.140625 2.390625 -4.140625 C 2.765625 -4.140625 2.953125 -3.96875 2.953125 -3.65625 C 2.953125 -3.453125 2.8125 -2.90625 2.71875 -2.546875 L 2.375 -1.1875 C 2.234375 -0.578125 1.875 -0.28125 1.53125 -0.28125 C 1.484375 -0.28125 1.25 -0.28125 1.0625 -0.421875 C 1.421875 -0.53125 1.59375 -0.875 1.59375 -1.109375 C 1.59375 -1.328125 1.421875 -1.578125 1.09375 -1.578125 C 0.75 -1.578125 0.375 -1.28125 0.375 -0.796875 C 0.375 -0.265625 0.90625 0.078125 1.515625 0.078125 C 2.078125 0.078125 2.453125 -0.34375 2.578125 -0.53125 C 2.828125 -0.109375 3.390625 0.078125 3.953125 0.078125 C 5.21875 0.078125 5.890625 -1.140625 5.890625 -1.46875 C 5.890625 -1.609375 5.734375 -1.609375 5.65625 -1.609375 C 5.53125 -1.609375 5.46875 -1.609375 5.421875 -1.484375 C 5.140625 -0.578125 4.421875 -0.28125 4 -0.28125 C 3.625 -0.28125 3.453125 -0.453125 3.453125 -0.78125 C 3.453125 -0.984375 3.578125 -1.515625 3.671875 -1.890625 C 3.734375 -2.140625 3.96875 -3.078125 4.015625 -3.234375 C 4.171875 -3.84375 4.515625 -4.140625 4.859375 -4.140625 C 4.921875 -4.140625 5.140625 -4.140625 5.34375 -4 Z M 5.34375 -4 "
           id="path3934" />
      </symbol>
    </g>
    <g
       id="g8023">
      <symbol
         overflow="visible"
         id="symbol859">
        <path
           style="stroke:none;"
           d=""
           id="path6787" />
      </symbol>
      <symbol
         overflow="visible"
         id="symbol4016">
        <path
           style="stroke:none;"
           d="M 5.390625 -7.203125 C 4.90625 -6.78125 4.375 -6.484375 3.875 -6.484375 C 3.46875 -6.484375 3.1875 -6.65625 2.828125 -6.859375 C 2.546875 -7.03125 2.234375 -7.203125 1.828125 -7.203125 C 1.578125 -7.203125 1.328125 -7.125 1.109375 -7.015625 C 0.90625 -6.921875 0.703125 -6.8125 0.53125 -6.671875 L 0 -6.234375 L 0.140625 -6.0625 C 0.625 -6.46875 1.15625 -6.765625 1.671875 -6.765625 C 2.0625 -6.765625 2.359375 -6.59375 2.703125 -6.40625 C 2.984375 -6.234375 3.296875 -6.0625 3.703125 -6.0625 C 3.953125 -6.0625 4.203125 -6.140625 4.421875 -6.234375 C 4.625 -6.34375 4.828125 -6.453125 5 -6.59375 L 5.53125 -7.03125 Z M 5.390625 -7.203125 "
           id="path8408" />
      </symbol>
      <symbol
         overflow="visible"
         id="symbol196">
        <path
           style="stroke:none;"
           d=""
           id="path9648" />
      </symbol>
      <symbol
         overflow="visible"
         id="symbol6898">
        <path
           style="stroke:none;"
           d="M 5.75 -3.765625 C 5.796875 -3.9375 5.796875 -3.953125 5.796875 -3.984375 C 5.796875 -4.203125 5.640625 -4.421875 5.328125 -4.421875 C 4.8125 -4.421875 4.6875 -3.953125 4.625 -3.6875 L 4.359375 -2.65625 C 4.25 -2.171875 4.0625 -1.40625 3.953125 -1 C 3.890625 -0.78125 3.59375 -0.53125 3.5625 -0.515625 C 3.453125 -0.453125 3.203125 -0.28125 2.875 -0.28125 C 2.296875 -0.28125 2.28125 -0.78125 2.28125 -1 C 2.28125 -1.609375 2.59375 -2.390625 2.875 -3.109375 C 2.96875 -3.375 3 -3.4375 3 -3.609375 C 3 -4.1875 2.421875 -4.5 1.875 -4.5 C 0.8125 -4.5 0.3125 -3.15625 0.3125 -2.953125 C 0.3125 -2.8125 0.46875 -2.8125 0.5625 -2.8125 C 0.671875 -2.8125 0.75 -2.8125 0.78125 -2.9375 C 1.109375 -4.046875 1.671875 -4.140625 1.8125 -4.140625 C 1.890625 -4.140625 1.984375 -4.140625 1.984375 -3.9375 C 1.984375 -3.703125 1.875 -3.453125 1.8125 -3.296875 C 1.421875 -2.296875 1.21875 -1.71875 1.21875 -1.21875 C 1.21875 -0.078125 2.21875 0.078125 2.796875 0.078125 C 3.046875 0.078125 3.390625 0.046875 3.765625 -0.21875 C 3.484375 1 2.734375 1.65625 2.046875 1.65625 C 1.90625 1.65625 1.640625 1.640625 1.4375 1.515625 C 1.75 1.390625 1.90625 1.109375 1.90625 0.84375 C 1.90625 0.484375 1.625 0.390625 1.421875 0.390625 C 1.0625 0.390625 0.703125 0.703125 0.703125 1.140625 C 0.703125 1.65625 1.234375 2.015625 2.046875 2.015625 C 3.1875 2.015625 4.5 1.25 4.8125 0.015625 Z M 5.75 -3.765625 "
           id="path246" />
      </symbol>
    </g>
  </defs>
  <sodipodi:namedview
     fit-margin-bottom="0"
     fit-margin-right="0"
     fit-margin-left="0"
     fit-margin-top="0"
     inkscape:guide-bbox="true"
     showguides="true"
     inkscape:document-rotation="0"
     inkscape:snap-intersection-paths="true"
     inkscape:snap-object-midpoints="true"
     inkscape:snap-page="true"
     inkscape:bbox-nodes="true"
     inkscape:snap-bbox="true"
     inkscape:window-maximized="1"
     inkscape:window-y="0"
     inkscape:window-x="1920"
     inkscape:window-height="1052"
     inkscape:window-width="1920"
     inkscape:showpageshadow="false"
     inkscape:pagecheckerboard="true"
     units="px"
     showgrid="false"
     inkscape:current-layer="layer1"
     inkscape:document-units="px"
     inkscape:cy="313.28451"
     inkscape:cx="513.03557"
     inkscape:zoom="0.93220244"
     inkscape:pageshadow="2"
     inkscape:pageopacity="0.0"
     borderopacity="1.0"
     bordercolor="#666666"
     pagecolor="#ffffff"
     id="base" />
  <metadata
     id="metadata5">
    <rdf:RDF>
      <cc:Work
         rdf:about="">
        <dc:format>image/svg+xml</dc:format>
        <dc:type
           rdf:resource="http://purl.org/dc/dcmitype/StillImage" />
        <dc:title />
      </cc:Work>
    </rdf:RDF>
  </metadata>
  <g
     transform="translate(6.1306526,-138.24999)"
     id="layer1"
     inkscape:groupmode="layer"
     inkscape:label="Layer 1">
    <rect
       y="138.24998"
       x="-6.1306524"
       height="153.98749"
       width="259.34372"
       id="rect1120"
       style="fill:#ffffff;stroke-width:0.529167" />
    <g
       style="stroke-width:0.350336"
       inkscape:label=""
       transform="matrix(2.8544074,0,0,2.8544074,-234.01143,-65.190743)"
       id="g946">
      <g
         style="stroke-width:0.350336"
         id="g8893">
        <g
           id="g4030"
           style="fill:#000000;fill-opacity:1;stroke-width:0.350336">
          <use
             style="stroke-width:0.350336"
             height="100%"
             width="100%"
             id="use4560"
             y="81.962997"
             x="91.925003"
             xlink:href="#symbol8327" />
        </g>
      </g>
    </g>
    <g
       style="stroke-width:0.41889"
       inkscape:label=""
       transform="matrix(2.3872622,0,0,2.3872622,3.0069052,-31.120941)"
       id="g1059">
      <g
         style="stroke-width:0.41889"
         id="g4948">
        <g
           id="g184"
           style="fill:#000000;fill-opacity:1;stroke-width:0.41889">
          <use
             style="stroke-width:0.41889"
             height="100%"
             width="100%"
             id="use969"
             y="81.962997"
             x="91.925003"
             xlink:href="#symbol2663" />
        </g>
      </g>
    </g>
    <path
       id="path1244"
       d="M 51.91335,167.44821 H 217.49522"
       style="fill:none;stroke:#000000;stroke-width:0.79375;stroke-linecap:butt;stroke-linejoin:miter;stroke-miterlimit:4;stroke-dasharray:none;stroke-opacity:1;marker-end:url(#Arrow1Lend)" />
    <g
       style="stroke-width:0.57969"
       inkscape:label=""
       transform="matrix(1.725061,0,0,1.725061,-33.845193,42.433457)"
       id="g1854">
      <g
         style="stroke-width:0.57969"
         id="g1665">
        <g
           id="g6763"
           style="fill:#000000;fill-opacity:1;stroke-width:0.57969">
          <use
             style="stroke-width:0.57969"
             height="100%"
             width="100%"
             id="use8966"
             y="81.962997"
             x="91.925003"
             xlink:href="#symbol6526" />
        </g>
      </g>
    </g>
    <path
       style="fill:none;stroke:#000000;stroke-width:0.79375;stroke-linecap:butt;stroke-linejoin:miter;stroke-miterlimit:4;stroke-dasharray:none;stroke-opacity:1;marker-end:url(#marker1877)"
       d="M 219.03618,156.86487 H 53.454307"
       id="path1873" />
    <g
       style="stroke-width:0.587589"
       inkscape:label=""
       transform="matrix(1.7018677,0,0,1.7018677,-41.124366,12.783194)"
       id="g2047">
      <g
         style="stroke-width:0.587589"
         id="g3432">
        <g
           id="g9635"
           style="fill:#000000;fill-opacity:1;stroke-width:0.587589">
          <use
             style="stroke-width:0.587589"
             height="100%"
             width="100%"
             id="use9379"
             y="81.962997"
             x="91.925003"
             xlink:href="#symbol1131" />
        </g>
        <g
           id="g9476"
           style="fill:#000000;fill-opacity:1;stroke-width:0.587589">
          <use
             style="stroke-width:0.587589"
             height="100%"
             width="100%"
             id="use3518"
             y="78.348"
             x="100.587"
             xlink:href="#symbol9245" />
        </g>
        <g
           id="g2343"
           style="fill:#000000;fill-opacity:1;stroke-width:0.587589">
          <use
             style="stroke-width:0.587589"
             height="100%"
             width="100%"
             id="use9915"
             y="78.348"
             x="106.814"
             xlink:href="#symbol4425" />
        </g>
      </g>
    </g>
    <path
       id="path2072"
       d="m 31.116854,171.59447 v 90.8582"
       style="fill:none;stroke:#000000;stroke-width:0.79375;stroke-linecap:butt;stroke-linejoin:miter;stroke-miterlimit:4;stroke-dasharray:none;stroke-opacity:1;marker-end:url(#marker2076)" />
    <path
       style="fill:none;stroke:#000000;stroke-width:0.79375;stroke-linecap:butt;stroke-linejoin:miter;stroke-miterlimit:4;stroke-dasharray:none;stroke-opacity:1;marker-end:url(#marker2136)"
       d="m 41.700188,263.99363 v -90.8582"
       id="path2132" />
    <g
       style="stroke-width:0.573202"
       inkscape:label=""
       transform="matrix(1.7445906,0,0,1.7445906,-115.70571,80.274665)"
       id="g2337">
      <g
         style="stroke-width:0.573202"
         id="g9115">
        <g
           id="g8384"
           style="fill:#000000;fill-opacity:1;stroke-width:0.573202">
          <use
             style="stroke-width:0.573202"
             height="100%"
             width="100%"
             id="use8365"
             y="81.962997"
             x="91.925003"
             xlink:href="#symbol3676" />
        </g>
      </g>
    </g>
    <g
       style="stroke-width:0.575232"
       inkscape:label=""
       transform="matrix(1.7384314,0,0,1.7384314,-167.07681,80.75523)"
       id="g2496">
      <g
         style="stroke-width:0.575232"
         id="g6162">
        <g
           id="g4760"
           style="fill:#000000;fill-opacity:1;stroke-width:0.575232">
          <use
             style="stroke-width:0.575232"
             height="100%"
             width="100%"
             id="use249"
             y="81.962997"
             x="91.925003"
             xlink:href="#symbol3093" />
        </g>
        <g
           id="g1132"
           style="fill:#000000;fill-opacity:1;stroke-width:0.575232">
          <use
             style="stroke-width:0.575232"
             height="100%"
             width="100%"
             id="use7140"
             y="78.348"
             x="101.224"
             xlink:href="#symbol8850" />
        </g>
        <g
           id="g4890"
           style="fill:#000000;fill-opacity:1;stroke-width:0.575232">
          <use
             style="stroke-width:0.575232"
             height="100%"
             width="100%"
             id="use5003"
             y="78.348"
             x="107.45"
             xlink:href="#symbol4450" />
        </g>
      </g>
    </g>
    <path
       style="fill:none;stroke:#000000;stroke-width:0.79375;stroke-linecap:butt;stroke-linejoin:miter;stroke-miterlimit:4;stroke-dasharray:none;stroke-opacity:1;marker-end:url(#marker2575)"
       d="m 224.26278,171.59447 v 90.8582"
       id="path2535" />
    <path
       id="path2537"
       d="m 234.84612,263.99363 v -90.8582"
       style="fill:none;stroke:#000000;stroke-width:0.79375;stroke-linecap:butt;stroke-linejoin:miter;stroke-miterlimit:4;stroke-dasharray:none;stroke-opacity:1;marker-end:url(#marker2565)" />
    <g
       style="stroke-width:0.730485"
       inkscape:label=""
       transform="matrix(1.3689528,0,0,1.3689528,-19.655837,179.79872)"
       id="g3719">
      <g
         style="stroke-width:0.730485"
         id="g6431">
        <g
           id="g2214"
           style="fill:#000000;fill-opacity:1;stroke-width:0.730485">
          <use
             style="stroke-width:0.730485"
             height="100%"
             width="100%"
             id="use2751"
             y="81.962997"
             x="91.925003"
             xlink:href="#symbol1529" />
        </g>
        <g
           id="g1397"
           style="fill:#000000;fill-opacity:1;stroke-width:0.730485">
          <use
             style="stroke-width:0.730485"
             height="100%"
             width="100%"
             id="use9640"
             y="78.348"
             x="101.224"
             xlink:href="#symbol7471" />
        </g>
        <g
           id="g6778"
           style="fill:#000000;fill-opacity:1;stroke-width:0.730485">
          <use
             style="stroke-width:0.730485"
             height="100%"
             width="100%"
             id="use6349"
             y="78.348"
             x="107.45"
             xlink:href="#symbol1467" />
        </g>
        <g
           id="g551"
           style="fill:#000000;fill-opacity:1;stroke-width:0.730485">
          <use
             style="stroke-width:0.730485"
             height="100%"
             width="100%"
             id="use4993"
             y="81.962997"
             x="111.92"
             xlink:href="#symbol6405" />
          <use
             style="stroke-width:0.730485"
             height="100%"
             width="100%"
             id="use419"
             y="81.962997"
             x="120.58148"
             xlink:href="#symbol1529" />
        </g>
      </g>
    </g>
    <g
       style="stroke-width:0.708746"
       inkscape:label=""
       transform="matrix(1.4109436,0,0,1.4109436,-23.821573,147.77482)"
       id="g4043">
      <g
         style="stroke-width:0.708746"
         id="g3485">
        <g
           id="g606"
           style="fill:#000000;fill-opacity:1;stroke-width:0.708746">
          <use
             style="stroke-width:0.708746"
             height="100%"
             width="100%"
             id="use7943"
             y="81.962997"
             x="91.925003"
             xlink:href="#symbol4045" />
        </g>
        <g
           id="g2843"
           style="fill:#000000;fill-opacity:1;stroke-width:0.708746">
          <use
             style="stroke-width:0.708746"
             height="100%"
             width="100%"
             id="use6299"
             y="81.962997"
             x="101.22807"
             xlink:href="#symbol7116" />
          <use
             style="stroke-width:0.708746"
             height="100%"
             width="100%"
             id="use348"
             y="81.962997"
             x="109.88956"
             xlink:href="#symbol4045" />
        </g>
        <g
           id="g9617"
           style="fill:#000000;fill-opacity:1;stroke-width:0.708746">
          <use
             style="stroke-width:0.708746"
             height="100%"
             width="100%"
             id="use1814"
             y="78.348"
             x="119.184"
             xlink:href="#symbol1015" />
        </g>
        <g
           id="g4683"
           style="fill:#000000;fill-opacity:1;stroke-width:0.708746">
          <use
             style="stroke-width:0.708746"
             height="100%"
             width="100%"
             id="use2334"
             y="78.348"
             x="125.411"
             xlink:href="#symbol4106" />
        </g>
      </g>
    </g>
    <path
       style="fill:none;stroke:#000000;stroke-width:0.79375;stroke-linecap:butt;stroke-linejoin:miter;stroke-miterlimit:4;stroke-dasharray:none;stroke-opacity:1;marker-end:url(#marker2909)"
       d="M 51.91335,278.57328 H 217.49522"
       id="path2893" />
    <path
       id="path2895"
       d="M 219.03618,267.98994 H 53.454307"
       style="fill:none;stroke:#000000;stroke-width:0.79375;stroke-linecap:butt;stroke-linejoin:miter;stroke-miterlimit:4;stroke-dasharray:none;stroke-opacity:1;marker-end:url(#marker2899)" />
    <g
       id="g4104"
       transform="matrix(1.7445906,0,0,1.7445906,77.440129,80.274665)"
       inkscape:label=""
       style="stroke-width:0.573202">
      <g
         id="g4102"
         style="stroke-width:0.573202">
        <g
           style="fill:#000000;fill-opacity:1;stroke-width:0.573202"
           id="g4100">
          <use
             xlink:href="#symbol3676"
             x="91.925003"
             y="81.962997"
             id="use4098"
             width="100%"
             height="100%"
             style="stroke-width:0.573202" />
        </g>
      </g>
    </g>
    <g
       id="g4120"
       transform="matrix(1.7384314,0,0,1.7384314,27.656563,80.75523)"
       inkscape:label=""
       style="stroke-width:0.575232">
      <g
         id="g4118"
         style="stroke-width:0.575232">
        <g
           style="fill:#000000;fill-opacity:1;stroke-width:0.575232"
           id="g4108">
          <use
             xlink:href="#symbol3093"
             x="91.925003"
             y="81.962997"
             id="use4106"
             width="100%"
             height="100%"
             style="stroke-width:0.575232" />
        </g>
        <g
           style="fill:#000000;fill-opacity:1;stroke-width:0.575232"
           id="g4112">
          <use
             xlink:href="#symbol8850"
             x="101.224"
             y="78.348"
             id="use4110"
             width="100%"
             height="100%"
             style="stroke-width:0.575232" />
        </g>
        <g
           style="fill:#000000;fill-opacity:1;stroke-width:0.575232"
           id="g4116">
          <use
             xlink:href="#symbol4450"
             x="107.45"
             y="78.348"
             id="use4114"
             width="100%"
             height="100%"
             style="stroke-width:0.575232" />
        </g>
      </g>
    </g>
    <g
       inkscape:label=""
       transform="matrix(2.6501399,0,0,2.6501399,-216.33939,66.237878)"
       id="g1672"
       style="stroke-width:0.377338">
      <g
         id="g3894"
         style="stroke-width:0.377338">
        <g
           style="fill:#000000;fill-opacity:1;stroke-width:0.377338"
           id="g2958">
          <use
             xlink:href="#symbol9034"
             x="92.759003"
             y="81.823997"
             id="use1455"
             width="100%"
             height="100%"
             style="stroke-width:0.377338" />
        </g>
        <g
           style="fill:#000000;fill-opacity:1;stroke-width:0.377338"
           id="g669">
          <use
             xlink:href="#symbol1966"
             x="91.925003"
             y="81.962997"
             id="use7657"
             width="100%"
             height="100%"
             style="stroke-width:0.377338" />
        </g>
      </g>
    </g>
    <g
       inkscape:label=""
       transform="matrix(2.5552309,0,0,2.5552309,-13.744476,73.320071)"
       id="g1968"
       style="stroke-width:0.391354">
      <g
         id="g2898"
         style="stroke-width:0.391354">
        <g
           style="fill:#000000;fill-opacity:1;stroke-width:0.391354"
           id="g9110">
          <use
             xlink:href="#symbol4016"
             x="92.918999"
             y="81.823997"
             id="use9808"
             width="100%"
             height="100%"
             style="stroke-width:0.391354" />
        </g>
        <g
           style="fill:#000000;fill-opacity:1;stroke-width:0.391354"
           id="g8953">
          <use
             xlink:href="#symbol6898"
             x="91.925003"
             y="81.962997"
             id="use373"
             width="100%"
             height="100%"
             style="stroke-width:0.391354" />
        </g>
      </g>
    </g>
  </g>
</svg>
